<?xml version="1.0" encoding="UTF-8"?>
<!DOCTYPE svg PUBLIC "-//W3C//DTD SVG 1.1//EN" "http://www.w3.org/Graphics/SVG/1.1/DTD/svg11.dtd">
<!-- Creator: CorelDRAW X7 -->
<svg xmlns="http://www.w3.org/2000/svg" xml:space="preserve" width="497.97mm" height="185.164mm" version="1.1" style="shape-rendering:geometricPrecision; text-rendering:geometricPrecision; image-rendering:optimizeQuality; fill-rule:evenodd; clip-rule:evenodd"
viewBox="0 0 53201 19782"
 xmlns:xlink="http://www.w3.org/1999/xlink">
 <defs>
  <style type="text/css">
   <![CDATA[
    .fil0 {fill:#375927}
    .fil1 {fill:#375927;fill-rule:nonzero}
   ]]>
  </style>
 </defs>
 <g id="Layer_x0020_1">
  <metadata id="CorelCorpID_0Corel-Layer"/>
  <g id="_2954765007296">
   <path class="fil0" d="M38265 1824l5173 0c280,0 559,-15 826,27 276,44 432,156 661,-19 122,-94 774,-733 832,-868 518,-1202 -3523,-940 -4128,-940l-3025 0 0 132c0,28 -11,56 -31,76l-82 81 0 182c0,29 -11,56 -31,76l-82 82 0 408c0,28 -11,55 -31,75l-82 82 0 606z"/>
   <path class="fil0" d="M39147 19745l2482 0c947,0 2422,89 3269,-113 1684,-401 2957,-1965 3030,-3759 31,-757 0,-1757 4,-2564 2,-316 14,-513 -209,-629 -320,-166 -468,-21 -626,144l-849 846c-362,397 337,2456 -680,3542 -728,776 -1362,743 -2657,743l-3854 0 0 1518 90 272z"/>
   <path class="fil0" d="M0 3600l0 12565c134,282 14,510 411,1330 170,354 481,787 698,1001 1642,1622 3134,1249 5523,1249l4075 0 -74 -221c-3,-11 -5,-22 -5,-34l0 -1535 -6106 0c-599,0 -975,27 -1475,-228 -1540,-787 -1257,-2297 -1257,-3890 0,-969 -54,-9628 35,-10165 141,-853 828,-1565 1613,-1774 606,-162 2546,-74 3307,-74l3075 0 16 -16 0 -634c0,-29 12,-56 32,-76l81 -82 0 -408c0,-28 12,-55 32,-75l81 -82 0 -182c0,-28 12,-55 32,-75l81 -82 0 -88 -3543 0c-964,0 -2447,-84 -3341,68 -1472,251 -2718,1415 -3133,2821 -63,213 -75,510 -158,687z"/>
   <path class="fil0" d="M37174 12254c0,876 -36,3197 9,3911l3542 0c662,0 422,67 1314,-825l5709 -5710c487,-486 945,-945 1432,-1432 248,-248 468,-468 716,-716 175,-175 598,-556 706,-730l-4000 -4025c-179,126 -4589,4574 -4732,4717l-4145 4146c-195,195 -551,479 -551,664z"/>
   <path class="fil0" d="M47496 1866l3995 3980c192,-89 755,-715 948,-908 260,-259 655,-561 741,-1106 100,-638 -178,-958 -515,-1297 -380,-382 -1995,-2082 -2338,-2258 -227,-117 -530,-160 -820,-120 -546,75 -838,486 -1100,748 -188,188 -826,754 -911,961z"/>
   <path class="fil0" d="M38521 12820l0 650 1337 0 11 1338c933,75 772,8 1549,-768 276,-277 589,-562 838,-844 -209,-235 -1986,-2033 -2148,-2119l-1442 1454c-97,92 -145,104 -145,289z"/>
   <path class="fil0" d="M46467 4679c-296,148 -2535,2474 -2826,2765 -474,474 -920,921 -1394,1395 -324,324 -989,852 -902,1133 47,153 237,300 438,214 162,-70 4112,-4084 4901,-4862 95,-94 265,-228 217,-446 -38,-172 -219,-307 -434,-199z"/>
   <path class="fil1" d="M7102 13806l5474 0 0 -1391 -3950 0 0 -1958 2148 0c545,0 812,-256 801,-779l0 -500 -2949 0 0 -1625 3950 0 0 -1313 -4695 0c-523,11 -779,289 -779,812l0 6754zm8946 -4651c801,0 1213,557 1246,1692 0,1190 -423,1791 -1268,1791 -846,0 -1246,-601 -1235,-1791 44,-1135 456,-1692 1257,-1692zm1981 -2915l-735 0 0 2504c-378,-612 -946,-913 -1680,-913 -1569,56 -2348,1080 -2348,3082 0,1959 913,2949 2737,2982 1836,11 2760,-868 2760,-2637l0 -4272c0,-401 -334,-746 -734,-746zm1401 0l0 1157 1480 0 0 -434c11,-478 -222,-723 -712,-723l-768 0zm0 1680l0 5886 1480 0 0 -5174c0,-478 -233,-712 -712,-712l-768 0zm4685 323l0 -323 -890 0 0 -934c0,-390 -323,-746 -712,-746l-768 0 0 6431c-11,657 256,1002 812,1057 556,56 1079,56 1558,11l0 -1123 -456 0c-290,0 -434,-134 -434,-379l0 -3260 155 0c412,0 735,-311 735,-734zm2692 4473c-467,0 -712,-223 -745,-690 0,-434 300,-712 890,-823 434,-89 835,-212 1180,-356l0 545c0,834 -501,1324 -1325,1324zm345 -3672c612,0 924,167 957,501 0,322 -322,512 -957,589 -1491,145 -2514,523 -2548,1936 0,1302 980,1959 2393,1848 1591,-112 2570,-835 2570,-2459l0 -2003c-33,-1091 -857,-1625 -2481,-1625 -1358,0 -2126,534 -2304,1625l1480 0c78,-278 367,-412 890,-412zm3127 4762l1502 0 0 -3060c0,-856 412,-1290 1235,-1290l501 0 0 -1536 -212 0c-1969,0 -2981,946 -3026,2849l0 3037z"/>
  </g>
 </g>
</svg>
