<?xml version="1.0" encoding="UTF-8"?>
<!DOCTYPE svg PUBLIC "-//W3C//DTD SVG 1.1//EN" "http://www.w3.org/Graphics/SVG/1.1/DTD/svg11.dtd">
<!-- Creator: CorelDRAW X7 -->
<svg xmlns="http://www.w3.org/2000/svg" xml:space="preserve" width="41.9364mm" height="42.1349mm" version="1.1" style="shape-rendering:geometricPrecision; text-rendering:geometricPrecision; image-rendering:optimizeQuality; fill-rule:evenodd; clip-rule:evenodd"
viewBox="0 0 4159 4179"
 xmlns:xlink="http://www.w3.org/1999/xlink">
 <defs>
  <style type="text/css">
   <![CDATA[
    .str0 {stroke:#FEFEFE;stroke-width:148.768}
    .fil0 {fill:none}
    .fil1 {fill:black}
    .fil2 {fill:white}
   ]]>
  </style>
 </defs>
 <g id="Layer_x0020_1">
  <metadata id="CorelCorpID_0Corel-Layer"/>
  <rect class="fil0" width="4146" height="4179"/>
  <path class="fil1" d="M13 1508l0 1859c23,27 34,133 167,174 109,34 199,-13 252,-75 109,-128 29,-440 57,-623l802 0c20,17 47,70 66,98 18,26 56,71 78,95 48,51 133,114 194,149 463,262 1037,37 1215,-447 16,-44 22,-94 40,-132 74,-6 332,-11 383,14 87,43 68,222 62,339 -149,40 -117,127 -118,286 0,183 45,190 220,190l614 -1c79,-7 82,-43 114,-89l0 -293c-51,-76 -22,-60 -117,-93 -12,-169 -1,-382 -1,-555 0,-249 48,-391 -160,-390 -368,1 -738,3 -1107,0 -46,-85 -136,-179 -200,-230 -77,-62 -169,-110 -277,-147 9,-16 133,-101 67,-233 -52,-108 -145,-97 -219,-102l2 -235c204,-25 538,33 634,-35 96,-67 103,-217 -5,-291 -52,-36 -116,-30 -186,-30 -136,0 -314,10 -445,-2 -16,-71 -33,-116 -118,-116 -81,0 -109,45 -119,118 -148,1 -296,0 -444,0 -76,0 -136,-6 -190,33 -102,72 -99,221 3,290 54,36 113,31 187,31 147,0 296,-2 445,0l-3 238c-113,1 -187,25 -220,111 -56,142 68,211 85,232 -41,20 -87,36 -131,60 -83,45 -151,102 -216,168 -28,29 -31,22 -80,22l-477 -1c-67,0 -337,9 -381,-4 1,-105 1,-210 1,-315 0,-109 -35,-182 -96,-225 -71,-50 -161,-65 -247,-22 -109,55 -106,127 -131,179z"/>
  <ellipse class="fil1 str0" cx="869" cy="3337" rx="777" ry="732"/>
  <polygon class="fil2" points="390,3236 765,3236 765,2860 1004,2860 1004,3236 1380,3236 1380,3475 1004,3475 1004,3850 765,3850 765,3475 390,3475 "/>
 </g>
</svg>
