<?xml version="1.0" encoding="UTF-8"?>
<!DOCTYPE svg PUBLIC "-//W3C//DTD SVG 1.1//EN" "http://www.w3.org/Graphics/SVG/1.1/DTD/svg11.dtd">
<!-- Creator: CorelDRAW X7 -->
<svg xmlns="http://www.w3.org/2000/svg" xml:space="preserve" width="41.5481mm" height="41.3138mm" version="1.1" style="shape-rendering:geometricPrecision; text-rendering:geometricPrecision; image-rendering:optimizeQuality; fill-rule:evenodd; clip-rule:evenodd"
viewBox="0 0 801 796"
 xmlns:xlink="http://www.w3.org/1999/xlink">
 <defs>
  <style type="text/css">
   <![CDATA[
    .str0 {stroke:black;stroke-width:34.6909}
    .str1 {stroke:#FEFEFE;stroke-width:28.903}
    .fil1 {fill:black}
    .fil0 {fill:white}
   ]]>
  </style>
 </defs>
 <g id="Layer_x0020_1">
  <metadata id="CorelCorpID_0Corel-Layer"/>
  <path class="fil0 str0" d="M373 18c-202,16 -365,190 -351,410 14,200 192,366 410,350 201,-14 366,-190 351,-409 -15,-201 -192,-367 -410,-351z"/>
  <ellipse class="fil1 str1" cx="163" cy="636" rx="148" ry="140"/>
  <polygon class="fil0" points="71,616 143,616 143,545 189,545 189,616 261,616 261,662 189,662 189,734 143,734 143,662 71,662 "/>
  <path class="fil1" d="M128 406c12,2 28,14 35,21 6,5 25,21 28,28 7,-4 38,-37 46,-43 9,-7 28,-2 34,3 10,8 13,14 17,28 16,0 25,1 34,9 13,10 11,22 16,27 12,-4 26,-1 35,5 8,5 14,15 16,28 17,-1 28,1 37,10 6,7 13,23 11,37 0,5 -7,10 -10,13l-35 36c18,14 45,0 51,-24 28,2 43,-3 45,-32 12,0 35,11 50,-12 4,-7 3,-12 6,-19 21,1 49,4 46,-36 -2,-19 -27,-41 -36,-50l-16 -15c-13,-12 -64,-56 -78,-64 -2,2 -33,31 -63,48 -51,29 -88,-10 -87,-34 0,-16 8,-21 22,-33l29 -28c5,-5 10,-8 15,-13l14 -14c3,-2 5,-4 7,-6 3,-3 4,-5 7,-7 -19,-16 -74,-1 -97,5 -20,6 -27,10 -50,8 -45,-4 -48,-26 -66,-17 -6,3 -8,11 -11,18 -6,14 -12,27 -18,40 -5,14 -11,27 -17,41 -5,11 -16,29 -17,42z"/>
  <path class="fil1" d="M461 339c25,12 52,33 71,51 3,3 7,6 11,9l41 42c3,4 6,7 10,10 20,25 21,17 47,-5 8,-6 16,-12 22,-18l17 -14c11,-7 22,-6 9,-32 -4,-9 -9,-18 -13,-28l-33 -69c-3,-5 -4,-9 -6,-15 -14,-31 -24,35 -128,3 -11,-4 -19,-8 -30,-12 -17,-6 -35,-9 -47,5l-31 31c-18,18 -47,42 -66,57 -4,4 -8,5 -8,13 0,7 2,12 5,16 6,9 12,15 26,16 26,3 43,-12 58,-23 17,-12 31,-25 45,-37z"/>
  <path class="fil1" d="M295 458c-13,3 -37,31 -46,41 -7,7 -17,16 -10,32 4,9 14,18 29,14 9,-2 18,-15 23,-20 18,-17 40,-31 32,-52 -3,-9 -15,-18 -28,-15z"/>
  <path class="fil1" d="M247 422c-10,3 -17,11 -25,20 -8,7 -14,14 -22,22 -27,26 -2,50 19,45 10,-2 19,-14 24,-20 8,-8 15,-13 22,-21 6,-7 15,-15 10,-31 -4,-9 -15,-18 -28,-15z"/>
  <path class="fil1" d="M397 523c-8,2 -10,4 -14,8l-33 33c-6,6 -16,14 -12,29 2,11 13,20 26,18 11,-1 20,-12 25,-18 16,-16 41,-32 35,-52 -3,-11 -14,-19 -27,-18z"/>
  <path class="fil1" d="M344 491c-13,4 -35,31 -46,42 -24,24 1,50 23,43 9,-3 17,-15 23,-20 7,-8 14,-14 22,-22 23,-23 2,-53 -22,-43z"/>
 </g>
</svg>
