<?xml version="1.0" encoding="UTF-8"?>
<!DOCTYPE svg PUBLIC "-//W3C//DTD SVG 1.1//EN" "http://www.w3.org/Graphics/SVG/1.1/DTD/svg11.dtd">
<!-- Creator: CorelDRAW X7 -->
<svg xmlns="http://www.w3.org/2000/svg" xml:space="preserve" width="41.8042mm" height="42.2121mm" version="1.1" style="shape-rendering:geometricPrecision; text-rendering:geometricPrecision; image-rendering:optimizeQuality; fill-rule:evenodd; clip-rule:evenodd"
viewBox="0 0 4229 4270"
 xmlns:xlink="http://www.w3.org/1999/xlink">
 <defs>
  <style type="text/css">
   <![CDATA[
    .str0 {stroke:#FEFEFE;stroke-width:151.74}
    .fil0 {fill:none}
    .fil1 {fill:black}
    .fil2 {fill:white}
   ]]>
  </style>
 </defs>
 <g id="Layer_x0020_1">
  <metadata id="CorelCorpID_0Corel-Layer"/>
  <rect class="fil0" width="4229" height="4262"/>
  <path class="fil1" d="M1958 4c-267,15 -567,106 -773,211 -191,98 -426,261 -571,412 -620,646 -575,1258 -614,1353l0 249c13,37 14,128 21,175 104,728 575,1339 1261,1647 678,306 1520,199 2108,-260 248,-193 382,-349 548,-617 96,-154 175,-351 227,-549 117,-445 67,-932 -100,-1324 -304,-715 -1011,-1254 -1793,-1297 -113,-5 -201,-5 -314,0z"/>
  <path class="fil2" d="M782 3540l192 -108c68,-32 141,-63 214,-91 134,-53 323,-123 411,-201 50,-46 101,-92 107,-188 26,-424 6,-222 -122,-484 -42,-86 -45,-141 -72,-233 -86,-39 -111,-73 -135,-179 -44,-191 48,-215 53,-242 4,-22 -391,-1213 701,-1192 291,6 326,120 363,144 23,14 66,17 97,27 251,85 305,350 290,599 -10,174 -54,282 -82,432 104,57 63,267 9,344 -37,54 -43,37 -93,71 -24,168 -99,329 -189,409 -9,116 -20,329 36,412 126,188 508,268 739,394 45,24 111,72 146,86 123,-123 225,-240 328,-405 756,-1203 -44,-2969 -1660,-2969 -1323,0 -2188,1221 -1884,2441 85,341 218,545 417,789l134 144z"/>
  <ellipse class="fil1 str0" cx="873" cy="3447" rx="793" ry="747"/>
  <path class="fil2" d="M1391 3594l0 -13c-154,-26 -159,-236 0,-265l0 -13c-16,-24 -27,-82 -57,-123l-8 -10c-62,16 -118,5 -151,-31 -43,-47 -35,-83 -25,-151 -11,-4 -126,-54 -133,-59l-12 0c-29,157 -238,155 -266,0l-13 0c-5,4 -124,56 -132,59 26,147 -38,207 -183,182 -15,45 -48,86 -57,143 43,23 40,7 78,44 50,49 50,132 3,180 -37,38 -42,24 -80,47 11,62 40,95 56,143 127,-29 221,40 183,176 33,28 91,51 142,62 22,-36 7,-44 44,-77 53,-49 129,-52 181,-3 40,38 23,44 46,80 51,-10 111,-34 142,-62 -15,-61 -3,-120 32,-151 40,-38 88,-39 151,-26 3,-9 54,-126 59,-132z"/>
  <path class="fil1" d="M841 3234c-296,53 -204,480 73,425 277,-55 197,-472 -73,-425z"/>
 </g>
</svg>
