<?xml version="1.0" encoding="UTF-8"?>
<!DOCTYPE svg PUBLIC "-//W3C//DTD SVG 1.1//EN" "http://www.w3.org/Graphics/SVG/1.1/DTD/svg11.dtd">
<!-- Creator: CorelDRAW X7 -->
<svg xmlns="http://www.w3.org/2000/svg" xml:space="preserve" width="41.8042mm" height="42.1349mm" version="1.1" style="shape-rendering:geometricPrecision; text-rendering:geometricPrecision; image-rendering:optimizeQuality; fill-rule:evenodd; clip-rule:evenodd"
viewBox="0 0 834 841"
 xmlns:xlink="http://www.w3.org/1999/xlink">
 <defs>
  <style type="text/css">
   <![CDATA[
    .fil3 {fill:none}
    .fil0 {fill:black}
    .fil2 {fill:#8A8A8A}
    .fil1 {fill:#FEFEFE}
   ]]>
  </style>
 </defs>
 <g id="Layer_x0020_1">
  <metadata id="CorelCorpID_0Corel-Layer"/>
  <g id="_2511605530480">
   <path class="fil0" d="M136 841l559 0c7,-5 24,-9 26,-31 1,-17 0,-39 0,-57 0,-37 -1,-75 0,-113 21,-2 33,2 49,-10 11,-9 18,-20 18,-40 1,-73 1,-163 0,-237 0,-20 -6,-33 -17,-41 -16,-13 -28,-10 -50,-11 -1,-19 0,-40 0,-59 0,-17 4,-42 -6,-53 -17,-20 -55,-61 -69,-79 -15,-20 -64,-73 -83,-95 -13,-14 -9,-8 -16,-15l-409 0c-4,3 -9,4 -14,7 -2,2 -7,7 -9,10 -5,10 -4,26 -4,38l0 164c0,26 2,57 0,82 -21,1 -33,-2 -49,10 -11,8 -18,21 -18,41l0 236c0,20 6,32 18,42 16,13 27,8 49,10 1,38 0,75 0,112 0,29 -5,60 8,77 7,8 11,7 17,12z"/>
   <path class="fil1" d="M145 301l543 0 0 -83c-13,-2 -102,0 -128,0 -44,0 -34,-2 -34,-97 0,-29 1,-58 0,-86l-381 -1 0 267z"/>
   <path class="fil1" d="M144 798l543 1c3,-16 1,-132 1,-159 -131,-2 -274,0 -408,0 -18,0 -127,-1 -136,1l0 157z"/>
   <path class="fil1" d="M356 354c-130,22 -115,252 40,227 59,-9 93,-63 86,-133 -7,-61 -55,-106 -126,-94z"/>
   <path class="fil1" d="M703 569l0 -117 -84 -1 0 39c8,2 26,1 34,1l1 46c-18,9 -53,3 -73,-14 -16,-13 -26,-43 -20,-72 5,-26 19,-42 42,-51 12,-4 29,-5 43,-4 24,2 31,7 39,8 2,-4 10,-35 10,-40 -40,-17 -97,-13 -133,6 -32,17 -57,53 -56,103 0,50 26,82 61,98 35,16 100,13 136,-2z"/>
   <path class="fil1" d="M260 538c-13,0 -80,1 -88,-1 -3,-18 3,-159 -1,-181l-49 0c-2,22 -2,214 0,223l139 0c0,-3 1,-38 -1,-41z"/>
   <path class="fil0" d="M373 393c-20,2 -32,11 -40,25 -25,49 -9,129 47,124 72,-5 62,-157 -7,-149z"/>
   <path class="fil2" d="M145 301l0 -267 381 1c-2,-4 1,-2 -4,-3l-42 0c-41,0 -316,-1 -336,1 -2,10 -1,219 -1,260 0,10 1,6 2,8z"/>
   <path class="fil2" d="M260 538c-2,-3 -37,-2 -43,-2 -14,0 -29,1 -44,0 0,-22 1,-162 0,-175 0,-7 0,-3 -2,-5 4,22 -2,163 1,181 8,2 75,1 88,1z"/>
  </g>
  <rect class="fil3" width="834" height="841"/>
 </g>
</svg>
